Family of Cops - When his long-awaited family reunion is marred by a murder involving his free-spirited daughter, a police commander (Charles Bronson) crosses the line and gets involved in a dangerous game with the victim's sultry widow to try to prove his daughter's innocence.

Family of Cops II - Breach of Faith The family of cops is back, this time dealing with the murder of a priest tied in with the Russian Mafia, who proceed to try to draw the family off the case.

Family of Cops III (Under Suspicion) - Bronson returns as Paul Fein, a haggard Milwaukee police inspector who deals with family issues while coping with the possibility of promotion to police chief.

General:

Complete name                    : Family Of Cops\One\Family Of Cops One.avi
Format                           : AVI
Format/Info                      : Audio Video Interleave
File size                        : 1.18 GiB
Duration                         : 1h 26mn
Overall bit rate                 : 1 937 Kbps

Video:

Format                           : MPEG-4 Visual
Format profile                   : Simple@L3
Format settings, BVOP            : No
Format settings, QPel            : No
Format settings, GMC             : No warppoints
Format settings, Matrix          : Default (H.263)
Codec ID                         : XVID
Codec ID/Hint                    : XviD
Duration                         : 1h 26mn
Bit rate                         : 1 478 Kbps
Width                            : 720 pixels
Height                           : 576 pixels
Display aspect ratio             : 5:4
Frame rate                       : 25.000 fps
Standard                         : PAL
Color space                      : YUV
Chroma subsampling               : 4:2:0
Bit depth                        : 8 bits
Scan type                        : Progressive
Bits/(Pixel*Frame)               : 0.143
Stream size                      : 919 MiB (76%)
Writing library                  : XviD 1.1.2 (UTC 2006-11-01)

Audio:

Format                           : AC-3
Format/Info                      : Audio Coding 3
Format profile                   : Dolby Digital
Mode extension                   : CM (complete main)
Codec ID                         : 2000
Duration                         : 1h 26mn
Bit rate mode                    : Constant
Bit rate                         : 448 Kbps
Channel(s)                       : 2 channels
Channel positions                : Front: L R
Sampling rate                    : 48.0 KHz
Bit depth                        : 16 bits
Stream size                      : 279 MiB (23%)
Alignment                        : Aligned on interleaves
Interleave, duration             : 32 ms (0.80 video frame)
Interleave, preload duration     : 1536 ms
